<svg xmlns="http://www.w3.org/2000/svg" version="1.1" xmlns:xlink="http://www.w3.org/1999/xlink" xmlns:svgjs="http://svgjs.dev/svgjs" width="2000" height="530" viewBox="0 0 2000 530"><g transform="matrix(1,0,0,1,-1.2121212121212466,1.1068108628979871)"><svg viewBox="0 0 396 105" data-background-color="#ffffff" preserveAspectRatio="xMidYMid meet" height="530" width="2000" xmlns="http://www.w3.org/2000/svg" xmlns:xlink="http://www.w3.org/1999/xlink"><g id="tight-bounds" transform="matrix(1,0,0,1,0.2400000000000091,-0.21927385019677104)"><svg viewBox="0 0 395.52 105.43854770039356" height="105.43854770039356" width="395.52"><g><svg viewBox="0 0 397.4975999999999 105.96574043889551" height="105.43854770039356" width="395.52"><g><svg viewBox="0 0 397.4975999999999 105.96574043889551" height="105.96574043889551" width="397.4975999999999"><g id="textblocktransform"><svg viewBox="0 0 397.4975999999999 105.96574043889551" height="105.96574043889551" width="397.4975999999999" id="textblock"><g><rect width="397.4975999999999" height="5.36522763973991" x="0" y="65.81426464342931" fill="#263d4f" opacity="1" stroke-width="0" stroke="transparent" fill-opacity="1" class="rect-qz-0" data-fill-palette-color="primary" rx="1%" id="qz-0" data-palette-color="#263d4f"></rect></g><g transform="matrix(1,0,0,1,0.9887999999999693,0)"><svg viewBox="0 0 395.52 59.49397030342156" height="59.49397030342156" width="395.52"><g transform="matrix(1,0,0,1,0,0)"><svg width="395.52" viewBox="4 -35.5 302.51 45.51" height="59.49397030342156" data-palette-color="#263d4f"><path d="M23.71 0L4 0 4-35.01 23.71-35.01 23.71-32.01 7.15-32.01 7.15-18.99 20.56-18.99 20.56-15.99 7.15-15.99 7.15-3 23.71-3 23.71 0ZM45.41-25L36.55 0 35.06 0 26.19-25 29.2-25 35.72-6.05 35.81-4.76 35.91-6.05 42.4-25 45.41-25ZM65.6-6.86L65.6-6.86Q65.6-5.35 65.02-4 64.45-2.66 63.45-1.66 62.45-0.66 61.1-0.09 59.76 0.49 58.25 0.49L58.25 0.49 56.25 0.49Q54.73 0.49 53.39-0.09 52.05-0.66 51.04-1.66 50.04-2.66 49.47-4 48.9-5.35 48.9-6.86L48.9-6.86 48.9-18.14Q48.9-19.65 49.47-21 50.04-22.34 51.04-23.34 52.05-24.34 53.39-24.91 54.73-25.49 56.25-25.49L56.25-25.49 58.25-25.49Q59.76-25.49 61.1-24.91 62.45-24.34 63.45-23.34 64.45-22.34 65.02-21 65.6-19.65 65.6-18.14L65.6-18.14 65.6-12.26 51.9-12.26 51.9-6.69Q51.9-5.79 52.24-4.99 52.58-4.2 53.17-3.61 53.75-3.03 54.55-2.69 55.34-2.34 56.25-2.34L56.25-2.34 58.25-2.34Q59.15-2.34 59.94-2.69 60.74-3.03 61.32-3.61 61.91-4.2 62.25-4.99 62.59-5.79 62.59-6.69L62.59-6.69 62.59-8.35 65.6-7.86 65.6-6.86ZM62.59-14.6L62.59-18.31Q62.59-19.21 62.25-20.01 61.91-20.8 61.32-21.39 60.74-21.97 59.94-22.31 59.15-22.66 58.25-22.66L58.25-22.66 56.25-22.66Q55.34-22.66 54.55-22.31 53.75-21.97 53.17-21.39 52.58-20.8 52.24-20.01 51.9-19.21 51.9-18.31L51.9-18.31 51.9-14.6 62.59-14.6ZM81.95-22.14L78.95-22.14Q78.04-22.14 77.25-21.8 76.46-21.46 75.87-20.87 75.29-20.29 74.94-19.49 74.6-18.7 74.6-17.8L74.6-17.8 74.6 0 71.6 0 71.6-25 72.6-25 74.24-22.46Q75.26-23.85 76.81-24.67 78.36-25.49 80.19-25.49L80.19-25.49 81.95-25.49 81.95-22.14ZM115.35 0L112.34 0 112.34-18.31Q112.34-19.21 112-20.01 111.66-20.8 111.07-21.39 110.49-21.97 109.69-22.31 108.9-22.66 108-22.66L108-22.66 106.51-22.66Q105.61-22.66 104.81-22.31 104.02-21.97 103.42-21.39 102.82-20.8 102.48-20.01 102.14-19.21 102.14-18.31L102.14-18.31 102.14 0 99.16 0 99.16-18.31Q99.16-19.21 98.82-20.01 98.48-20.8 97.88-21.39 97.28-21.97 96.49-22.31 95.69-22.66 94.79-22.66L94.79-22.66 93.3-22.66Q92.4-22.66 91.6-22.31 90.81-21.97 90.22-21.39 89.64-20.8 89.3-20.01 88.95-19.21 88.95-18.31L88.95-18.31 88.95 0 85.95 0 85.95-25 86.95-25 88.59-22.46Q89.61-23.85 91.16-24.67 92.71-25.49 94.55-25.49L94.55-25.49 94.79-25.49Q96.91-25.49 98.62-24.44 100.33-23.39 101.26-21.66L101.26-21.66Q101.72-22.51 102.41-23.22 103.09-23.93 103.92-24.43 104.75-24.93 105.73-25.21 106.7-25.49 107.75-25.49L107.75-25.49 108-25.49Q109.51-25.49 110.85-24.91 112.2-24.34 113.2-23.34 114.2-22.34 114.77-21 115.35-19.65 115.35-18.14L115.35-18.14 115.35 0ZM138.05-6.86L138.05-6.86Q138.05-5.35 137.48-4 136.9-2.66 135.9-1.66 134.9-0.66 133.56-0.09 132.21 0.49 130.7 0.49L130.7 0.49 128.7 0.49Q127.18 0.49 125.84-0.09 124.5-0.66 123.5-1.66 122.5-2.66 121.92-4 121.35-5.35 121.35-6.86L121.35-6.86 121.35-18.14Q121.35-19.65 121.92-21 122.5-22.34 123.5-23.34 124.5-24.34 125.84-24.91 127.18-25.49 128.7-25.49L128.7-25.49 130.7-25.49Q132.21-25.49 133.56-24.91 134.9-24.34 135.9-23.34 136.9-22.34 137.48-21 138.05-19.65 138.05-18.14L138.05-18.14 138.05-6.86ZM135.05-6.69L135.05-18.31Q135.05-19.21 134.7-20.01 134.36-20.8 133.78-21.39 133.19-21.97 132.4-22.31 131.6-22.66 130.7-22.66L130.7-22.66 128.7-22.66Q127.8-22.66 127-22.31 126.21-21.97 125.62-21.39 125.04-20.8 124.69-20.01 124.35-19.21 124.35-18.31L124.35-18.31 124.35-6.69Q124.35-5.79 124.69-4.99 125.04-4.2 125.62-3.61 126.21-3.03 127-2.69 127.8-2.34 128.7-2.34L128.7-2.34 130.7-2.34Q131.6-2.34 132.4-2.69 133.19-3.03 133.78-3.61 134.36-4.2 134.7-4.99 135.05-5.79 135.05-6.69L135.05-6.69ZM154.4-22.14L151.4-22.14Q150.5-22.14 149.7-21.8 148.91-21.46 148.32-20.87 147.74-20.29 147.4-19.49 147.06-18.7 147.06-17.8L147.06-17.8 147.06 0 144.05 0 144.05-25 145.05-25 146.69-22.46Q147.71-23.85 149.26-24.67 150.82-25.49 152.65-25.49L152.65-25.49 154.4-25.49 154.4-22.14ZM175.1-6.86L175.1-6.86Q175.1-5.35 174.53-4 173.96-2.66 172.96-1.66 171.96-0.66 170.61-0.09 169.27 0.49 167.76 0.49L167.76 0.49 165.75 0.49Q164.24 0.49 162.9-0.09 161.55-0.66 160.55-1.66 159.55-2.66 158.98-4 158.41-5.35 158.41-6.86L158.41-6.86 158.41-18.14Q158.41-19.65 158.98-21 159.55-22.34 160.55-23.34 161.55-24.34 162.9-24.91 164.24-25.49 165.75-25.49L165.75-25.49 167.76-25.49Q169.27-25.49 170.61-24.91 171.96-24.34 172.96-23.34 173.96-22.34 174.53-21 175.1-19.65 175.1-18.14L175.1-18.14 175.1-12.26 161.41-12.26 161.41-6.69Q161.41-5.79 161.75-4.99 162.09-4.2 162.68-3.61 163.26-3.03 164.06-2.69 164.85-2.34 165.75-2.34L165.75-2.34 167.76-2.34Q168.66-2.34 169.45-2.69 170.25-3.03 170.83-3.61 171.42-4.2 171.76-4.99 172.1-5.79 172.1-6.69L172.1-6.69 172.1-8.35 175.1-7.86 175.1-6.86ZM172.1-14.6L172.1-18.31Q172.1-19.21 171.76-20.01 171.42-20.8 170.83-21.39 170.25-21.97 169.45-22.31 168.66-22.66 167.76-22.66L167.76-22.66 165.75-22.66Q164.85-22.66 164.06-22.31 163.26-21.97 162.68-21.39 162.09-20.8 161.75-20.01 161.41-19.21 161.41-18.31L161.41-18.31 161.41-14.6 172.1-14.6ZM212.79-9.16L212.79-8.11Q212.79-6.32 212.07-4.76 211.35-3.2 210.15-2.03 208.94-0.85 207.34-0.18 205.74 0.49 203.96 0.49L203.96 0.49 201.44 0.49Q199.66 0.49 198.06-0.18 196.46-0.85 195.25-2.03 194.04-3.2 193.32-4.76 192.6-6.32 192.6-8.11L192.6-8.11 192.6-9.5 195.75-10.01 195.75-8.11Q195.75-6.93 196.23-5.92 196.71-4.91 197.51-4.14 198.32-3.37 199.38-2.93 200.44-2.49 201.61-2.49L201.61-2.49 203.81-2.49Q204.98-2.49 206.03-2.93 207.08-3.37 207.89-4.14 208.69-4.91 209.17-5.92 209.65-6.93 209.65-8.11L209.65-8.11 209.65-9.16Q209.65-10.96 208.94-12.16 208.23-13.35 207.06-14.2 205.89-15.04 204.41-15.63 202.93-16.21 201.37-16.8 199.81-17.38 198.33-18.09 196.85-18.8 195.68-19.86 194.51-20.92 193.8-22.46 193.09-24 193.09-26.25L193.09-26.25 193.09-26.9Q193.09-28.69 193.76-30.25 194.44-31.81 195.61-32.98 196.78-34.16 198.35-34.83 199.93-35.5 201.71-35.5L201.71-35.5 203.96-35.5Q205.74-35.5 207.3-34.83 208.86-34.16 210.04-32.98 211.21-31.81 211.88-30.25 212.55-28.69 212.55-26.9L212.55-26.9 212.55-26 209.4-25.49 209.4-26.9Q209.4-28.08 208.96-29.09 208.52-30.1 207.77-30.86 207.01-31.62 206-32.06 204.98-32.5 203.81-32.5L203.81-32.5 201.86-32.5Q200.69-32.5 199.67-32.06 198.66-31.62 197.89-30.86 197.12-30.1 196.68-29.09 196.24-28.08 196.24-26.9L196.24-26.9 196.24-26.25Q196.24-24.56 196.95-23.41 197.66-22.27 198.83-21.45 200-20.63 201.48-20.03 202.96-19.43 204.52-18.81 206.08-18.19 207.56-17.44 209.04-16.7 210.21-15.61 211.38-14.53 212.09-12.96 212.79-11.4 212.79-9.16L212.79-9.16ZM230.39 0L227.66 0Q226.29 0 225.08-0.51 223.88-1.03 222.99-1.93 222.09-2.83 221.57-4.03 221.04-5.22 221.04-6.59L221.04-6.59 221.04-22.14 216.55-22.14 216.55-25 221.04-25 221.04-31.01 224.05-31.49 224.05-25 230.39-25 230.39-22.14 224.05-22.14 224.05-6.45Q224.05-5.69 224.33-5.04 224.61-4.39 225.1-3.91 225.59-3.42 226.24-3.14 226.9-2.86 227.66-2.86L227.66-2.86 230.39-2.86 230.39 0ZM252.61-25L239.96 10.01 237.06 10.01 241.5-2.15 233.4-25 236.4-25 242.92-6.05 243.01-4.76 243.11-6.05 249.61-25 252.61-25ZM259.61 0L256.61 0 256.61-35.01 259.61-35.01 259.61 0ZM283.32-6.86L283.32-6.86Q283.32-5.35 282.74-4 282.17-2.66 281.17-1.66 280.17-0.66 278.82-0.09 277.48 0.49 275.97 0.49L275.97 0.49 273.97 0.49Q272.45 0.49 271.11-0.09 269.77-0.66 268.77-1.66 267.77-2.66 267.19-4 266.62-5.35 266.62-6.86L266.62-6.86 266.62-18.14Q266.62-19.65 267.19-21 267.77-22.34 268.77-23.34 269.77-24.34 271.11-24.91 272.45-25.49 273.97-25.49L273.97-25.49 275.97-25.49Q277.48-25.49 278.82-24.91 280.17-24.34 281.17-23.34 282.17-22.34 282.74-21 283.32-19.65 283.32-18.14L283.32-18.14 283.32-12.26 269.62-12.26 269.62-6.69Q269.62-5.79 269.96-4.99 270.3-4.2 270.89-3.61 271.48-3.03 272.27-2.69 273.06-2.34 273.97-2.34L273.97-2.34 275.97-2.34Q276.87-2.34 277.67-2.69 278.46-3.03 279.04-3.61 279.63-4.2 279.97-4.99 280.31-5.79 280.31-6.69L280.31-6.69 280.31-8.35 283.32-7.86 283.32-6.86ZM280.31-14.6L280.31-18.31Q280.31-19.21 279.97-20.01 279.63-20.8 279.04-21.39 278.46-21.97 277.67-22.31 276.87-22.66 275.97-22.66L275.97-22.66 273.97-22.66Q273.06-22.66 272.27-22.31 271.48-21.97 270.89-21.39 270.3-20.8 269.96-20.01 269.62-19.21 269.62-18.31L269.62-18.31 269.62-14.6 280.31-14.6ZM306.51-6.35L306.51-6.35Q306.51-4.83 305.9-3.58 305.29-2.32 304.24-1.42 303.19-0.51 301.81-0.01 300.43 0.49 298.92 0.49L298.92 0.49 296.91 0.49Q295.4 0.49 294.02-0.09 292.64-0.66 291.6-1.66 290.57-2.66 289.94-4 289.32-5.35 289.32-6.86L289.32-6.86 289.32-7.86 292.32-8.35 292.32-6.69Q292.32-5.79 292.7-4.99 293.08-4.2 293.72-3.61 294.35-3.03 295.18-2.69 296.01-2.34 296.91-2.34L296.91-2.34 298.92-2.34Q299.82-2.34 300.65-2.61 301.48-2.88 302.13-3.38 302.77-3.88 303.15-4.59 303.53-5.3 303.53-6.2L303.53-6.2Q303.53-7.54 302.94-8.4 302.36-9.25 301.39-9.83 300.43-10.4 299.2-10.78 297.96-11.16 296.67-11.54 295.38-11.91 294.14-12.4 292.91-12.89 291.94-13.68 290.98-14.48 290.39-15.67 289.81-16.87 289.81-18.65L289.81-18.65Q289.81-20.17 290.39-21.42 290.98-22.68 291.98-23.58 292.98-24.49 294.31-24.99 295.64-25.49 297.16-25.49L297.16-25.49 298.92-25.49Q300.43-25.49 301.77-24.91 303.11-24.34 304.12-23.34 305.12-22.34 305.69-21 306.26-19.65 306.26-18.14L306.26-18.14 306.26-18.04 303.26-17.55 303.26-18.31Q303.26-19.21 302.92-20.01 302.58-20.8 301.99-21.39 301.41-21.97 300.61-22.31 299.82-22.66 298.92-22.66L298.92-22.66 297.16-22.66Q296.25-22.66 295.46-22.39 294.67-22.12 294.08-21.62 293.5-21.12 293.15-20.41 292.81-19.7 292.81-18.8L292.81-18.8Q292.81-17.5 293.4-16.69 293.98-15.87 294.95-15.31 295.91-14.75 297.15-14.37 298.38-13.99 299.66-13.59 300.94-13.18 302.17-12.67 303.41-12.16 304.37-11.35 305.34-10.55 305.92-9.34 306.51-8.13 306.51-6.35Z" opacity="1" transform="matrix(1,0,0,1,0,0)" fill="#263d4f" class="wordmark-text-0" data-fill-palette-color="primary" id="text-0"></path></svg></g></svg></g><g transform="matrix(1,0,0,1,165.28780799999993,77.49978662317697)"><svg viewBox="0 0 232.209792 28.465953815718553" height="28.465953815718553" width="232.209792"><g transform="matrix(1,0,0,1,0,0)"><svg width="232.209792" viewBox="1.63 -33.48 343.18 42.08" height="28.465953815718553" data-palette-color="#f25a50"><path d="M14.83 0L8.22 0 1.63-31.95 5.88-31.95 10.53-8.08 11.4-3.48 11.85-3.48 12.7-8.08 17.38-31.13 23.5-31.13 28.18-8.08 29.03-3.48 29.48-3.48 30.38-8.08 35.02-31.95 39.23-31.95 32.65 0 26.1 0 22.4-18.38 20.65-27.7 20.25-27.7 18.48-18.38 14.83 0ZM54.42 0.55L54.42 0.55Q48.85 0.55 46.02-2.18 43.2-4.9 43.2-9.98L43.2-9.98 43.2-14.33Q43.2-19.48 45.82-22.26 48.45-25.05 53.5-25.05L53.5-25.05Q56.9-25.05 59.17-23.79 61.45-22.53 62.6-20.2 63.75-17.88 63.75-14.65L63.75-14.65 63.75-13.75Q63.75-12.95 63.69-12.15 63.62-11.35 63.52-10.58L63.52-10.58 59.8-10.58Q59.85-11.78 59.86-12.85 59.87-13.93 59.87-14.83L59.87-14.83Q59.87-17.05 59.16-18.59 58.45-20.13 57.04-20.94 55.62-21.75 53.5-21.75L53.5-21.75Q50.35-21.75 48.77-19.93 47.2-18.1 47.2-14.7L47.2-14.7 47.2-12.38 47.22-11.88 47.22-9.55Q47.22-8.03 47.67-6.8 48.12-5.58 49.09-4.69 50.05-3.8 51.54-3.34 53.02-2.88 55.07-2.88L55.07-2.88Q57.45-2.88 59.5-3.5 61.55-4.13 63.35-5.2L63.35-5.2 62.97-1.7Q61.35-0.68 59.2-0.06 57.05 0.55 54.42 0.55ZM62.67-10.58L45.32-10.58 45.32-13.63 62.67-13.63 62.67-10.58ZM87.64 0L83.62 0 83.8-5.93 83.64-6.55 83.64-14.33 83.67-15.75Q83.67-18.73 82.16-20.15 80.64-21.58 77.37-21.58L77.37-21.58Q74.75-21.58 72.56-20.83 70.37-20.08 68.67-19.07L68.67-19.07 69.05-22.53Q70-23.1 71.31-23.66 72.62-24.23 74.31-24.6 76-24.98 78.02-24.98L78.02-24.98Q80.64-24.98 82.48-24.34 84.32-23.7 85.46-22.5 86.59-21.3 87.12-19.6 87.64-17.9 87.64-15.8L87.64-15.8 87.64 0ZM75.22 0.53L75.22 0.53Q71.59 0.53 69.66-1.24 67.72-3 67.72-6.28L67.72-6.28 67.72-7Q67.72-10.38 69.81-12.04 71.89-13.7 76.44-14.35L76.44-14.35 84.17-15.45 84.39-12.5 76.94-11.43Q74.14-11.03 72.94-10.06 71.75-9.1 71.75-7.23L71.75-7.23 71.75-6.83Q71.75-4.9 72.93-3.88 74.12-2.85 76.5-2.85L76.5-2.85Q78.59-2.85 80.09-3.58 81.59-4.3 82.52-5.53 83.44-6.75 83.77-8.25L83.77-8.25 84.39-5.5 83.62-5.5Q83.27-3.9 82.31-2.53 81.34-1.15 79.62-0.31 77.89 0.53 75.22 0.53ZM97.69-14.93L97.69-14.93 96.77-18.05 97.77-18.1Q98.57-21.2 100.52-22.99 102.47-24.78 105.69-24.78L105.69-24.78Q106.49-24.78 107.13-24.65 107.77-24.53 108.27-24.35L108.27-24.35 108.52-20.43Q107.89-20.63 107.13-20.75 106.37-20.88 105.44-20.88L105.44-20.88Q102.69-20.88 100.66-19.35 98.62-17.82 97.69-14.93ZM97.89 0L93.84 0 93.84-24.4 97.79-24.4 97.59-17.2 97.89-16.9 97.89 0ZM130.29 0.5L130.29 0.5Q127.46 0.5 125.74-0.35 124.01-1.2 123.24-2.93 122.46-4.65 122.46-7.23L122.46-7.23 122.46-22.63 126.46-22.63 126.46-7.7Q126.46-5.3 127.56-4.16 128.66-3.03 131.26-3.03L131.26-3.03Q132.74-3.03 134.1-3.35 135.46-3.68 136.66-4.28L136.66-4.28 136.29-0.8Q135.11-0.2 133.54 0.15 131.96 0.5 130.29 0.5ZM136.04-20.8L118.46-20.8 118.46-24.05 136.41-24.05 136.04-20.8ZM126.36-23.65L122.49-23.65 122.46-30.5 126.54-31.03 126.36-23.65ZM161.56 0L157.51 0 157.51-15.18Q157.51-17.15 156.97-18.57 156.44-20 155.22-20.79 154.01-21.58 151.91-21.58L151.91-21.58Q149.99-21.58 148.59-20.85 147.19-20.13 146.32-18.89 145.46-17.65 145.11-16.07L145.11-16.07 144.21-18.95 145.26-18.95Q145.64-20.6 146.64-21.96 147.64-23.33 149.32-24.14 151.01-24.95 153.44-24.95L153.44-24.95Q156.34-24.95 158.12-23.85 159.91-22.75 160.74-20.69 161.56-18.63 161.56-15.63L161.56-15.63 161.56 0ZM145.24 0L141.19 0 141.19-33.13 145.21-33.13 145.21-25.18 145.09-18.18 145.24-17.85 145.24 0ZM178.08 0.55L178.08 0.55Q172.51 0.55 169.68-2.18 166.86-4.9 166.86-9.98L166.86-9.98 166.86-14.33Q166.86-19.48 169.48-22.26 172.11-25.05 177.16-25.05L177.16-25.05Q180.56-25.05 182.83-23.79 185.11-22.53 186.26-20.2 187.41-17.88 187.41-14.65L187.41-14.65 187.41-13.75Q187.41-12.95 187.35-12.15 187.28-11.35 187.18-10.58L187.18-10.58 183.46-10.58Q183.51-11.78 183.52-12.85 183.53-13.93 183.53-14.83L183.53-14.83Q183.53-17.05 182.82-18.59 182.11-20.13 180.7-20.94 179.28-21.75 177.16-21.75L177.16-21.75Q174.01-21.75 172.43-19.93 170.86-18.1 170.86-14.7L170.86-14.7 170.86-12.38 170.88-11.88 170.88-9.55Q170.88-8.03 171.33-6.8 171.78-5.58 172.75-4.69 173.71-3.8 175.2-3.34 176.68-2.88 178.73-2.88L178.73-2.88Q181.11-2.88 183.16-3.5 185.21-4.13 187.01-5.2L187.01-5.2 186.63-1.7Q185.01-0.68 182.86-0.06 180.71 0.55 178.08 0.55ZM186.33-10.58L168.98-10.58 168.98-13.63 186.33-13.63 186.33-10.58ZM228.4-2.7L228.4 0.95 214.9 0.6Q207.7 0.4 204.37-2.86 201.03-6.13 201.03-12.3L201.03-12.3 201.03-19.68Q201.03-25.88 204.18-29.21 207.33-32.55 213.38-32.55L213.38-32.55Q217.43-32.55 220.18-31.06 222.93-29.58 224.33-26.7 225.73-23.83 225.73-19.68L225.73-19.68 225.73-12.9Q225.73-10.45 225.18-8.64 224.63-6.83 223.64-5.6 222.65-4.38 221.3-3.65 219.95-2.93 218.3-2.65L218.3-2.65 218.23-2.48 228.4-2.7ZM214.18-2.88L214.18-2.88 214.73-2.88Q216.13-3.15 217.37-3.81 218.6-4.48 219.54-5.58 220.48-6.68 221-8.3 221.53-9.93 221.53-12.13L221.53-12.13 221.53-19.85Q221.53-24.3 219.48-26.69 217.43-29.08 213.38-29.08L213.38-29.08Q209.35-29.08 207.3-26.69 205.25-24.3 205.25-19.85L205.25-19.85 205.25-12.13Q205.25-7.73 207.58-5.38 209.9-3.03 214.18-2.88ZM231.38-24.4L235.4-24.4 235.4-9.22Q235.4-7.3 235.94-5.86 236.48-4.42 237.7-3.64 238.93-2.85 241-2.85L241-2.85Q242.95-2.85 244.35-3.56 245.75-4.28 246.64-5.53 247.53-6.78 247.85-8.35L247.85-8.35 248.58-5.48 247.7-5.48Q247.33-3.83 246.33-2.46 245.33-1.1 243.64-0.29 241.95 0.53 239.48 0.53L239.48 0.53Q236.6 0.53 234.81-0.56 233.03-1.65 232.2-3.74 231.38-5.83 231.38-8.78L231.38-8.78 231.38-24.4ZM247.68-24.4L251.73-24.4 251.73 0 247.68 0 247.85-5.85 247.68-6.1 247.68-24.4ZM276.82 0L272.8 0 272.97-5.93 272.82-6.55 272.82-14.33 272.85-15.75Q272.85-18.73 271.34-20.15 269.82-21.58 266.55-21.58L266.55-21.58Q263.92-21.58 261.74-20.83 259.55-20.08 257.85-19.07L257.85-19.07 258.22-22.53Q259.17-23.1 260.49-23.66 261.8-24.23 263.49-24.6 265.17-24.98 267.2-24.98L267.2-24.98Q269.82-24.98 271.66-24.34 273.5-23.7 274.64-22.5 275.77-21.3 276.3-19.6 276.82-17.9 276.82-15.8L276.82-15.8 276.82 0ZM264.4 0.53L264.4 0.53Q260.77 0.53 258.84-1.24 256.9-3 256.9-6.28L256.9-6.28 256.9-7Q256.9-10.38 258.99-12.04 261.07-13.7 265.62-14.35L265.62-14.35 273.35-15.45 273.57-12.5 266.12-11.43Q263.32-11.03 262.12-10.06 260.92-9.1 260.92-7.23L260.92-7.23 260.92-6.83Q260.92-4.9 262.11-3.88 263.3-2.85 265.67-2.85L265.67-2.85Q267.77-2.85 269.27-3.58 270.77-4.3 271.7-5.53 272.62-6.75 272.95-8.25L272.95-8.25 273.57-5.5 272.8-5.5Q272.45-3.9 271.49-2.53 270.52-1.15 268.8-0.31 267.07 0.53 264.4 0.53ZM287.17 0L283.15 0 283.15-33.13 287.17-33.13 287.17 0ZM298.02 0L293.97 0 293.97-24.4 298.02-24.4 298.02 0ZM295.99-28.4L295.99-28.4Q294.74-28.4 294.13-29.06 293.52-29.73 293.52-30.88L293.52-30.88 293.52-31Q293.52-32.18 294.13-32.83 294.74-33.48 295.99-33.48L295.99-33.48Q297.24-33.48 297.87-32.83 298.49-32.18 298.49-31L298.49-31 298.49-30.88Q298.49-29.7 297.87-29.05 297.24-28.4 295.99-28.4ZM313.59 0.5L313.59 0.5Q310.77 0.5 309.04-0.35 307.32-1.2 306.54-2.93 305.77-4.65 305.77-7.23L305.77-7.23 305.77-22.63 309.77-22.63 309.77-7.7Q309.77-5.3 310.87-4.16 311.97-3.03 314.57-3.03L314.57-3.03Q316.04-3.03 317.4-3.35 318.77-3.68 319.97-4.28L319.97-4.28 319.59-0.8Q318.42-0.2 316.84 0.15 315.27 0.5 313.59 0.5ZM319.34-20.8L301.77-20.8 301.77-24.05 319.72-24.05 319.34-20.8ZM309.67-23.65L305.79-23.65 305.77-30.5 309.84-31.03 309.67-23.65ZM333.14-3.78L335.46-3.78 333.34-2.85 340.64-24.4 344.81-24.4 333.34 8.6 329.24 8.6 333.09-2.55 334.86-1 330.26-1 322.29-24.4 326.49-24.4 333.14-3.78Z" opacity="1" transform="matrix(1,0,0,1,0,0)" fill="#f25a50" class="slogan-text-1" data-fill-palette-color="secondary" id="text-1"></path></svg></g></svg></g></svg></g></svg></g></svg></g><defs></defs></svg><rect width="395.52" height="105.43854770039356" fill="none" stroke="none" visibility="hidden"></rect></g></svg></g></svg>