<svg xmlns="http://www.w3.org/2000/svg" version="1.1" xmlns:xlink="http://www.w3.org/1999/xlink" xmlns:svgjs="http://svgjs.dev/svgjs" width="2000" height="1247" viewBox="0 0 2000 1247"><g transform="matrix(1,0,0,1,-1.2121212121212466,0.504858299595071)"><svg viewBox="0 0 396 247" data-background-color="#ffffff" preserveAspectRatio="xMidYMid meet" height="1247" width="2000" xmlns="http://www.w3.org/2000/svg" xmlns:xlink="http://www.w3.org/1999/xlink"><g id="tight-bounds" transform="matrix(1,0,0,1,0.2400000000000091,-0.09999999999999432)"><svg viewBox="0 0 395.52 247.2" height="247.2" width="395.52"><g><svg></svg></g><g><svg viewBox="0 0 395.52 247.2" height="247.2" width="395.52"><g transform="matrix(1,0,0,1,75.54432,91.45625626585996)"><svg viewBox="0 0 244.43135999999998 64.28748746828005" height="64.28748746828005" width="244.43135999999998"><g><svg viewBox="0 0 244.43135999999998 64.28748746828005" height="64.28748746828005" width="244.43135999999998"><g><svg viewBox="0 0 244.43135999999998 64.28748746828005" height="64.28748746828005" width="244.43135999999998"><g><svg viewBox="0 0 244.43135999999998 64.28748746828005" height="64.28748746828005" width="244.43135999999998"><g id="textblocktransform"><svg viewBox="0 0 244.43135999999998 64.28748746828005" height="64.28748746828005" width="244.43135999999998" id="textblock"><g><svg viewBox="0 0 244.43135999999998 34.67359885370397" height="34.67359885370397" width="244.43135999999998"><g transform="matrix(1,0,0,1,0,0)"><svg width="244.43135999999998" viewBox="0.56 -37.35 340.74 48.34" height="34.67359885370397" data-palette-color="#263d4f"><path d="M22.22-9.03L22.22-9.03Q22.88-8.13 22.88-6.42 22.88-4.71 22.73-3.7 22.58-2.69 22.27-1.86L22.27-1.86Q21.53 0 20.34 0L20.34 0 0.56 0Q2.44-1 3.05-1.93L3.05-1.93Q4.2-3.66 4.2-6.32L4.2-6.32Q4.17-12.84 4.17-18.12L4.17-18.12 4.17-30.96Q4.17-34.59 3.03-36.23L3.03-36.23Q2.59-36.82 1.98-37.35L1.98-37.35 20.34-37.35Q22-36.77 22.61-33.25L22.61-33.25Q22.78-32.28 22.78-31.35L22.78-31.35Q22.78-29.44 22.22-28.32L22.22-28.32 20.9-30.96Q19.58-33.54 17.11-34.42L17.11-34.42Q15.75-34.91 14.04-34.91 12.33-34.91 11.6-34.8 10.86-34.69 10.47-34.28L10.47-34.28Q9.84-33.57 9.84-31.58 9.84-29.59 9.94-28.82 10.03-28.05 10.4-27.56L10.4-27.56Q11.16-26.61 13.6-26.61L13.6-26.61 21.26-26.61Q20.7-25.2 20.12-24.61L20.12-24.61Q18.95-23.44 16.94-23.44L16.94-23.44Q16.16-23.44 15.45-23.61L15.45-23.61Q14.14-23.93 13.13-23.93 12.13-23.93 11.49-23.74 10.84-23.56 10.47-23.17L10.47-23.17Q9.84-22.49 9.84-20.7L9.84-20.7 9.84-9.06Q9.84-4.47 10.35-3.61 10.86-2.76 11.6-2.6 12.33-2.44 14.04-2.44 15.75-2.44 17.14-2.93 18.53-3.42 19.47-4.3 20.41-5.18 21.02-6.38 21.63-7.59 22.22-9.03ZM23.53-24.66L32.54-24.66Q32.1-23.58 32.1-22.3 32.1-21.02 32.3-20.03 32.49-19.04 32.83-17.72L32.83-17.72 35.47-8.35 36.4-5.35Q37.84-9.67 38.3-11.18L38.3-11.18 39.18-14.16Q40.62-19.07 40.62-20.24 40.62-21.41 40.51-21.96 40.4-22.51 40.21-22.95L40.21-22.95Q39.96-23.61 39.26-24.66L39.26-24.66 48.14-24.66Q46.34-22.17 45.73-20.92L45.73-20.92 44.82-19.07Q44.6-18.63 44.21-17.8L44.21-17.8Q39.43-6.88 39.43-3.17L39.43-3.17Q39.43-1.49 40.06 0L40.06 0 31.27 0Q31.86-0.93 31.97-1.75 32.08-2.56 32.08-3.43 32.08-4.3 31.64-5.93 31.2-7.57 30.49-9.64 29.78-11.72 28.87-14.03 27.95-16.33 27-18.43L27-18.43Q24.85-23.14 23.53-24.66L23.53-24.66ZM68.94-8.3L68.94-8.3Q69.82-7.71 69.82-6.26 69.82-4.81 69.43-3.71 69.04-2.61 68.06-1.66L68.06-1.66Q65.86 0.49 61.37 0.49L61.37 0.49Q56.15 0.49 53.41-3.37L53.41-3.37Q51-6.81 51-12.67L51-12.67Q51-18.58 54.27-21.95L54.27-21.95Q57.37-25.15 62.67-25.15L62.67-25.15Q66.35-25.15 68.43-23L68.43-23Q70.06-21.29 70.06-19.06 70.06-16.82 69.2-15.03 68.33-13.23 66.65-11.94L66.65-11.94Q63.18-9.25 56.95-9.11L56.95-9.11Q57.47-4.2 60.03-2.54L60.03-2.54Q60.96-1.95 62.5-1.95 64.03-1.95 65.77-3.56 67.5-5.18 68.94-8.3ZM56.81-12.18L56.81-11.43Q64.52-11.94 64.52-18.9L64.52-18.9Q64.52-21.51 62.96-22.41L62.96-22.41Q62.42-22.71 61.54-22.71 60.66-22.71 59.77-22.17 58.88-21.63 58.22-20.41L58.22-20.41Q56.81-17.75 56.81-12.18L56.81-12.18ZM82.98 0L75.77 0Q76.9-3.86 76.9-13.26L76.9-13.26Q76.9-19.95 75.82-22.39L75.82-22.39Q75.38-23.39 74.26-24.66L74.26-24.66 82.93-24.66Q82.49-23.12 82.22-20.43L82.22-20.43Q84.51-23.32 88.62-24.51L88.62-24.51Q90.37-25.02 91.18-26.12L91.18-26.12Q91.98-24.19 91.98-22.8 91.98-21.41 91.84-20.23 91.69-19.04 91.4-17.92L91.4-17.92Q90.76-15.5 89.71-14.16L89.71-14.16Q88.81-18.92 86.91-19.73L86.91-19.73Q84.71-20.68 82.61-17.14L82.61-17.14Q82.17-16.41 81.88-15.58L81.88-15.58Q81.85-15.01 81.85-14.43 81.85-13.84 81.85-13.26L81.85-13.26Q81.85-3.86 82.98 0L82.98 0ZM103.12 0L96.11 0Q97.23-3.86 97.23-13.26L97.23-13.26Q97.23-19.95 96.06-22.39L96.06-22.39Q95.77-23 95.4-23.54L95.4-23.54 94.59-24.66 103.07-24.66Q102.7-23.22 102.58-22.36L102.58-22.36 102.41-20.9Q105.24-25.15 109.62-25.15 114-25.15 115.3-20.39L115.3-20.39Q117.23-23.68 120.4-24.76L120.4-24.76Q121.52-25.15 122.93-25.15 124.33-25.15 125.47-24.55 126.6-23.95 127.38-22.85L127.38-22.85Q128.92-20.63 128.92-16.77L128.92-16.77 128.92-14.16Q128.92-6.69 129.13-4.8 129.34-2.91 129.43-2.29L129.43-2.29Q129.58-1.22 129.92 0L129.92 0 122.72 0Q123.79-3.69 123.79-13.26L123.79-13.26Q123.79-17.14 123.4-18.47 123.01-19.8 122.39-20.4 121.77-21 120.69-21L120.69-21Q117.54-21 115.69-17.29L115.69-17.29 115.69-14.16Q115.69-6.69 115.9-4.8 116.1-2.91 116.2-2.29L116.2-2.29Q116.35-1.22 116.69 0L116.69 0 109.49 0Q110.59-3.76 110.59-13.26L110.59-13.26Q110.59-17.24 110.2-18.52 109.8-19.8 109.19-20.4 108.58-21 107.52-21 106.46-21 105.61-20.58 104.75-20.17 104.07-19.48L104.07-19.48Q102.77-18.21 102.04-16.21L102.04-16.21Q101.99-15.5 101.99-14.75L101.99-14.75 101.99-13.26Q101.99-3.86 103.12 0L103.12 0ZM114.78-14.7L114.88-15.14 114.78-14.7ZM146.64-22.71Q144.45-22.71 143.48-20.51 142.52-18.31 142.52-13.11L142.52-13.11Q142.52-1.95 146.64-1.95L146.64-1.95Q148.84-1.95 149.8-4.93 150.77-7.91 150.77-13.11 150.77-18.31 149.8-20.51 148.84-22.71 146.64-22.71L146.64-22.71ZM136.36-14.04Q136.36-25.15 146.64-25.15 156.92-25.15 156.92-14.04L156.92-14.04Q156.92-7.3 154.09-3.37L154.09-3.37Q151.33 0.49 146.64 0.49 141.96 0.49 139.2-3.37L139.2-3.37Q136.36-7.3 136.36-14.04L136.36-14.04ZM170.59 0L163.39 0Q164.51-3.86 164.51-13.26L164.51-13.26Q164.51-19.95 163.44-22.39L163.44-22.39Q163-23.39 161.87-24.66L161.87-24.66 170.54-24.66Q170.1-23.12 169.83-20.43L169.83-20.43Q172.13-23.32 176.23-24.51L176.23-24.51Q177.99-25.02 178.79-26.12L178.79-26.12Q179.6-24.19 179.6-22.8 179.6-21.41 179.45-20.23 179.31-19.04 179.01-17.92L179.01-17.92Q178.38-15.5 177.33-14.16L177.33-14.16Q176.43-18.92 174.52-19.73L174.52-19.73Q172.32-20.68 170.22-17.14L170.22-17.14Q169.78-16.41 169.49-15.58L169.49-15.58Q169.47-15.01 169.47-14.43 169.47-13.84 169.47-13.26L169.47-13.26Q169.47-3.86 170.59 0L170.59 0ZM199.96-8.3L199.96-8.3Q200.84-7.71 200.84-6.26 200.84-4.81 200.45-3.71 200.06-2.61 199.08-1.66L199.08-1.66Q196.88 0.49 192.39 0.49L192.39 0.49Q187.17 0.49 184.43-3.37L184.43-3.37Q182.01-6.81 182.01-12.67L182.01-12.67Q182.01-18.58 185.29-21.95L185.29-21.95Q188.39-25.15 193.68-25.15L193.68-25.15Q197.37-25.15 199.45-23L199.45-23Q201.08-21.29 201.08-19.06 201.08-16.82 200.21-15.03 199.35-13.23 197.66-11.94L197.66-11.94Q194.2-9.25 187.97-9.11L187.97-9.11Q188.48-4.2 191.05-2.54L191.05-2.54Q191.97-1.95 193.51-1.95 195.05-1.95 196.78-3.56 198.52-5.18 199.96-8.3ZM187.82-12.18L187.82-11.43Q195.54-11.94 195.54-18.9L195.54-18.9Q195.54-21.51 193.98-22.41L193.98-22.41Q193.44-22.71 192.56-22.71 191.68-22.71 190.79-22.17 189.9-21.63 189.24-20.41L189.24-20.41Q187.82-17.75 187.82-12.18L187.82-12.18ZM238.01-26.1L238.01-26.1Q238.67-24.63 238.67-23.14 238.67-21.66 238.54-20.68 238.41-19.7 238.14-18.8L238.14-18.8Q237.53-16.75 236.4-15.65L236.4-15.65Q235.65-19.43 234.76-20.56 233.86-21.68 232.97-22.07 232.08-22.46 231.08-22.46 230.08-22.46 229.45-22.27 228.81-22.07 228.35-21.7L228.35-21.7Q227.3-20.9 227.3-19.87 227.3-18.85 227.81-18.1 228.32-17.36 229.16-16.71 230.01-16.06 231.08-15.45L231.08-15.45 233.28-14.21Q236.11-12.62 237.16-11.57L237.16-11.57Q239.24-9.5 239.24-7.2L239.24-7.2Q239.24-4.2 237.18-2.15L237.18-2.15Q234.6 0.49 229.42 0.49L229.42 0.49Q224.71 0.49 222.34-1.71L222.34-1.71Q221.66-2.34 221.36-2.98L221.36-2.98Q221.56-4.81 223-6.42L223-6.42Q224.39-7.98 225.71-8.23L225.71-8.23Q225.61-7.91 225.61-7.28 225.61-6.64 225.98-5.7 226.34-4.76 227.03-3.96L227.03-3.96Q228.57-2.1 230.5-2.1 232.42-2.1 233.33-2.98 234.23-3.86 234.23-4.98 234.23-6.1 233.72-6.86 233.21-7.62 232.36-8.28 231.52-8.94 230.45-9.55L230.45-9.55 228.25-10.79Q225.44-12.45 224.39-13.62L224.39-13.62Q222.29-15.97 222.29-18.73L222.29-18.73Q222.29-21.63 224.73-23.44L224.73-23.44Q227.05-25.15 230.52-25.15L230.52-25.15 234.82-24.85Q236.38-24.85 236.99-25.23 237.6-25.61 238.01-26.1ZM251.88-34.42L251.88-34.42Q251.37-32.54 251.37-29.92 251.37-27.29 251.48-26.56 251.59-25.83 251.83-25.39L251.83-25.39Q252.29-24.66 253.64-24.66L253.64-24.66 260.18-24.66Q260.18-23.29 259.52-22.56L259.52-22.56Q258.32-21.24 256.59-21.24L256.59-21.24Q255.74-21.24 255.08-21.48L255.08-21.48Q253.88-21.97 253.22-21.97 252.56-21.97 252.15-21.72 251.73-21.46 251.49-20.97L251.49-20.97Q251.05-20.09 251.05-17.14 251.05-14.18 251.23-11.08 251.42-7.98 252.15-5.9 252.88-3.81 254.37-2.76 255.86-1.71 258.47-1.71L258.47-1.71Q258.47-0.95 257.45 0.1L257.45 0.1Q257.18 0.39 256.98 0.49L256.98 0.49Q252.66 0.49 250.51-0.54L250.51-0.54Q248.05-1.76 247-4.88L247-4.88Q245.95-8.06 245.95-14.28L245.95-14.28Q245.95-19.73 245.65-20.72 245.36-21.7 245.12-22.02L245.12-22.02Q244.82-22.39 243.7-22.92L243.7-22.92Q245.21-24.07 246.7-27.2L246.7-27.2 247.92-29.76Q249.22-32.69 250.13-33.56 251.05-34.42 251.88-34.42ZM276.22-7.35L276.22-8.08 276.24-13.5Q276.24-18.6 275.97-20.17 275.7-21.73 275.55-22.35 275.39-22.97 275.17-23.51L275.17-23.51 274.7-24.66 281.91-24.66 281.78-23.54Q281.64-22.36 281.59-20.12L281.59-20.12 281.49-16.41Q281.37-12.13 281.37-8.42 281.37-4.71 280.92-2.08 280.47 0.56 279.71 2.56 278.95 4.57 277.98 6.02 277 7.47 275.92 8.45L275.92 8.45Q274.07 10.21 271.77 10.99L271.77 10.99Q271.29 10.79 270.83 10.27 270.38 9.74 270.29 9.28L270.29 9.28Q272.43 8.18 273.73 5.91L273.73 5.91Q275.56 2.69 276.05-3.39L276.05-3.39Q273.21 0.49 269.09 0.49L269.09 0.49Q266.16 0.49 264.55-1.81L264.55-1.81Q263.01-4.03 263.01-7.91L263.01-7.91 263.01-11.21Q263.01-12.3 262.99-13.45L262.99-13.45 262.99-15.67Q262.94-17.8 262.83-18.98 262.72-20.17 262.58-20.96 262.45-21.75 262.25-22.38 262.06-23 261.81-23.54L261.81-23.54 261.28-24.66 268.72-24.66Q268.09-21.17 268.09-11.45L268.09-11.45Q268.09-7.5 268.5-6.18 268.92-4.86 269.54-4.26 270.16-3.66 271.14-3.66 272.12-3.66 272.86-3.97 273.61-4.27 274.22-4.79L274.22-4.79Q275.41-5.71 276.22-7.35L276.22-7.35ZM277-9.42L277.15-10.01 277-9.42ZM294.48-17.58L294.45-11.18Q294.45-3.27 295.4 0L295.4 0 288.2 0Q288.89-2.37 289.06-5.59L289.06-5.59Q289.42-13.38 289.42-17.68 289.42-21.97 289.4-23.45 289.37-24.93 289.35-26.42L289.35-26.42Q289.2-31.71 288.85-33.09 288.5-34.47 288.19-35.1 287.89-35.72 287.49-36.23L287.49-36.23 286.69-37.35 295.6-37.35Q294.92-34.89 294.81-32.63 294.7-30.37 294.64-28.64 294.57-26.9 294.53-25.02L294.53-25.02Q294.48-21.9 294.48-17.58L294.48-17.58ZM318.5-8.3L318.5-8.3Q319.38-7.71 319.38-6.26 319.38-4.81 318.99-3.71 318.6-2.61 317.62-1.66L317.62-1.66Q315.42 0.49 310.93 0.49L310.93 0.49Q305.7 0.49 302.97-3.37L302.97-3.37Q300.55-6.81 300.55-12.67L300.55-12.67Q300.55-18.58 303.82-21.95L303.82-21.95Q306.93-25.15 312.22-25.15L312.22-25.15Q315.91-25.15 317.99-23L317.99-23Q319.62-21.29 319.62-19.06 319.62-16.82 318.75-15.03 317.89-13.23 316.2-11.94L316.2-11.94Q312.74-9.25 306.51-9.11L306.51-9.11Q307.02-4.2 309.59-2.54L309.59-2.54Q310.51-1.95 312.05-1.95 313.59-1.95 315.32-3.56 317.06-5.18 318.5-8.3ZM306.36-12.18L306.36-11.43Q314.08-11.94 314.08-18.9L314.08-18.9Q314.08-21.51 312.52-22.41L312.52-22.41Q311.98-22.71 311.1-22.71 310.22-22.71 309.33-22.17 308.44-21.63 307.78-20.41L307.78-20.41Q306.36-17.75 306.36-12.18L306.36-12.18ZM340.08-26.1L340.08-26.1Q340.74-24.63 340.74-23.14 340.74-21.66 340.6-20.68 340.47-19.7 340.2-18.8L340.2-18.8Q339.59-16.75 338.47-15.65L338.47-15.65Q337.71-19.43 336.82-20.56 335.93-21.68 335.04-22.07 334.14-22.46 333.14-22.46 332.14-22.46 331.51-22.27 330.87-22.07 330.41-21.7L330.41-21.7Q329.36-20.9 329.36-19.87 329.36-18.85 329.87-18.1 330.38-17.36 331.23-16.71 332.07-16.06 333.14-15.45L333.14-15.45 335.34-14.21Q338.17-12.62 339.22-11.57L339.22-11.57Q341.3-9.5 341.3-7.2L341.3-7.2Q341.3-4.2 339.25-2.15L339.25-2.15Q336.66 0.49 331.48 0.49L331.48 0.49Q326.77 0.49 324.4-1.71L324.4-1.71Q323.72-2.34 323.43-2.98L323.43-2.98Q323.62-4.81 325.06-6.42L325.06-6.42Q326.45-7.98 327.77-8.23L327.77-8.23Q327.67-7.91 327.67-7.28 327.67-6.64 328.04-5.7 328.41-4.76 329.09-3.96L329.09-3.96Q330.63-2.1 332.56-2.1 334.49-2.1 335.39-2.98 336.29-3.86 336.29-4.98 336.29-6.1 335.78-6.86 335.27-7.62 334.43-8.28 333.58-8.94 332.51-9.55L332.51-9.55 330.31-10.79Q327.5-12.45 326.45-13.62L326.45-13.62Q324.35-15.97 324.35-18.73L324.35-18.73Q324.35-21.63 326.8-23.44L326.8-23.44Q329.12-25.15 332.58-25.15L332.58-25.15 336.88-24.85Q338.44-24.85 339.05-25.23 339.66-25.61 340.08-26.1Z" opacity="1" transform="matrix(1,0,0,1,0,0)" fill="#263d4f" class="wordmark-text-0" data-fill-palette-color="primary" id="text-0"></path></svg></g></svg></g><g transform="matrix(1,0,0,1,0,42.85920337669099)"><svg viewBox="0 0 244.43135999999998 21.428284091589056" height="21.428284091589056" width="244.43135999999998"><g transform="matrix(1,0,0,1,0,0)"><svg width="244.43135999999998" viewBox="0.65 -30.3 558.94 49" height="21.428284091589056" data-palette-color="#f25a50"><path d="M4.65 3.95L4.65 3.95Q2.5 3.95 1.58 3.18 0.65 2.4 0.65 1.15L0.65 1.15Q0.65 0.15 1.15-1.1 1.65-2.35 2.45-3.7L2.45-3.7Q4.2-6.7 6.43-9.98 8.65-13.25 10.8-16.45L10.8-16.45Q11.95-18.2 13.23-20.03 14.5-21.85 15.63-23.58 16.75-25.3 17.4-26.7L17.4-26.7Q16.9-26.75 16.4-26.75 15.9-26.75 15.35-26.75L15.35-26.75Q13.2-26.75 10.9-26.43 8.6-26.1 6.63-25.4 4.65-24.7 3.45-23.58 2.25-22.45 2.25-20.85L2.25-20.85Q2.25-19.85 2.83-19.25 3.4-18.65 4.13-18.3 4.85-17.95 5.2-17.7L5.2-17.7Q5.6-17.45 5.6-17.3L5.6-17.3Q5.6-17.2 5.4-17.2L5.4-17.2Q5-17.2 3.98-17.73 2.95-18.25 2.1-19.2 1.25-20.15 1.2-21.4L1.2-21.4Q1.2-21.5 1.1-21.7 1-21.9 1-22.05L1-22.05Q0.9-23.95 1.95-25.25 3-26.55 4.83-27.38 6.65-28.2 8.9-28.58 11.15-28.95 13.4-28.95L13.4-28.95Q15.9-28.95 18.15-28.55L18.15-28.55Q18.2-28.75 18.23-28.9 18.25-29.05 18.25-29.2L18.25-29.2Q18.25-29.45 18.15-29.65L18.15-29.65Q18.1-29.75 18.1-29.9L18.1-29.9Q18.1-30.3 18.55-30.3L18.55-30.3Q18.8-30.3 19.07-30.13 19.35-29.95 19.5-29.5L19.5-29.5Q19.55-29.4 19.55-29.15L19.55-29.15Q19.55-28.75 19.4-28.3L19.4-28.3Q20-28.1 20.48-27.9 20.95-27.7 21.4-27.5L21.4-27.5Q21.8-27.35 22.3-26.88 22.8-26.4 22.8-26.1L22.8-26.1Q22.8-25.85 22.4-25.85L22.4-25.85Q22.2-25.85 21.9-25.9 21.6-25.95 21.2-26.1L21.2-26.1Q20.7-26.25 20.15-26.38 19.6-26.5 19-26.6L19-26.6Q18.2-24.45 16.6-21.53 15-18.6 13.15-15.85L13.15-15.85Q11.5-13.35 9.83-10.75 8.15-8.15 6.78-5.65 5.4-3.15 4.6-0.9L4.6-0.9Q4.4-0.25 4.3 0.28 4.2 0.8 4.2 1.2L4.2 1.2Q4.2 2.8 5.75 2.8L5.75 2.8Q7.1 2.8 9.3 1.75 11.5 0.7 13.8-0.85L13.8-0.85Q17.95-3.75 21.68-7.4 25.4-11.05 28.3-15.15L28.3-15.15Q28.25-15.75 28.23-16.43 28.2-17.1 28.2-17.85L28.2-17.85Q28.2-19.05 28.28-20.3 28.35-21.55 28.55-22.5L28.55-22.5Q28.6-22.9 29.03-23.58 29.45-24.25 30.03-24.8 30.6-25.35 31.05-25.35L31.05-25.35Q31.5-25.35 31.78-24.75 32.05-24.15 32.05-22.65L32.05-22.65Q32.05-21.2 31.78-19.28 31.5-17.35 30.6-15.5L30.6-15.5Q30.55-12.6 31.18-9.88 31.8-7.15 32.98-5 34.15-2.85 35.65-1.63 37.15-0.4 38.85-0.45L38.85-0.45Q40.75-0.5 42.28-1.83 43.8-3.15 44.93-5.38 46.05-7.6 46.65-10.25 47.25-12.9 47.25-15.55L47.25-15.55Q47.25-18.2 46.58-20.58 45.9-22.95 44.45-24.5L44.45-24.5Q42.85-26.2 40.35-26.2L40.35-26.2Q40.15-26.2 39.93-26.2 39.7-26.2 39.45-26.15L39.45-26.15Q38.2-26 37.25-25.25L37.25-25.25Q37.05-25.15 36.9-25.15L36.9-25.15Q36.3-25.15 36.3-25.65L36.3-25.65Q36.3-25.85 36.5-26L36.5-26Q39.25-27.9 41.9-27.9L41.9-27.9Q43.85-27.9 45.45-26.85L45.45-26.85Q47.5-25.55 48.43-23 49.35-20.45 49.35-17.4L49.35-17.4Q49.35-14.25 48.45-10.93 47.55-7.6 45.95-4.8 44.35-2 42.15-0.28 39.95 1.45 37.4 1.45L37.4 1.45Q35.45 1.45 33.68 0.38 31.9-0.7 30.6-2.65 29.3-4.6 28.63-7.15 27.95-9.7 28.15-12.6L28.15-12.6Q26.55-10.6 24.33-8.33 22.1-6.05 19.68-3.93 17.25-1.8 15.05-0.2L15.05-0.2Q12.5 1.6 9.93 2.78 7.35 3.95 4.65 3.95ZM72.52 0.75L72.52 0.75Q70.27 0.75 68.62-0.3 66.97-1.35 66.97-3.5L66.97-3.5Q66.97-4.65 67.67-6.3L67.67-6.3Q68.17-7.45 69.52-8.95 70.87-10.45 72.67-11.88 74.47-13.3 76.32-14.23 78.17-15.15 79.67-15.15L79.67-15.15Q80.22-15.15 80.67-15L80.67-15Q81.52-14.7 81.84-14.05 82.17-13.4 82.17-12.7L82.17-12.7Q82.17-12.05 81.97-11.45 81.77-10.85 81.47-10.4L81.47-10.4Q80.57-9.05 78.89-8 77.22-6.95 75.49-6.35 73.77-5.75 72.67-5.65L72.67-5.65 72.57-5.65Q71.92-5.65 71.92-6.05L71.92-6.05Q71.92-6.3 72.32-6.3L72.32-6.3Q73.52-6.4 75.34-7.43 77.17-8.45 78.57-9.55L78.57-9.55Q79.17-10.05 79.99-10.95 80.82-11.85 80.82-12.7L80.82-12.7Q80.82-13.6 79.97-13.6L79.97-13.6Q79.52-13.6 79.04-13.4 78.57-13.2 78.27-13.1L78.27-13.1Q76.82-12.4 75.07-10.93 73.32-9.45 71.89-7.63 70.47-5.8 69.92-3.95L69.92-3.95Q69.77-3.55 69.72-3.18 69.67-2.8 69.67-2.45L69.67-2.45Q69.67-1.25 70.44-0.75 71.22-0.25 72.32-0.25L72.32-0.25Q73.97-0.25 75.72-0.98 77.47-1.7 79.12-2.85 80.77-4 82.14-5.33 83.52-6.65 84.47-7.9L84.47-7.9Q84.62-8.1 84.82-8.13 85.02-8.15 85.07-8.05L85.07-8.05Q85.27-8 85.27-7.78 85.27-7.55 85.17-7.35L85.17-7.35Q83.77-5.4 81.79-3.55 79.82-1.7 77.44-0.48 75.07 0.75 72.52 0.75ZM115.08 0.5L115.08 0.5Q114.23 0.5 113.51 0.1 112.78-0.3 112.43-1.4L112.43-1.4Q112.28-1.85 112.28-2.65L112.28-2.65Q112.28-3.75 112.58-5.1 112.88-6.45 113.23-7.4L113.23-7.4Q112.98-7.3 112.31-6.53 111.63-5.75 110.66-4.67 109.68-3.6 108.51-2.53 107.33-1.45 106.08-0.75 104.83-0.05 103.63-0.05L103.63-0.05Q102.83-0.05 101.93-0.53 101.03-1 100.48-1.75L100.48-1.75Q99.73-2.75 99.73-3.8L99.73-3.8Q99.73-5.15 100.66-6.6 101.58-8.05 103.06-9.43 104.53-10.8 106.21-11.93 107.88-13.05 109.41-13.83 110.93-14.6 111.88-14.85L111.88-14.85Q112.88-15.15 114.13-15.15L114.13-15.15Q114.83-15.15 115.58-14.98 116.33-14.8 116.83-14.4L116.83-14.4Q117.23-14.2 117.48-13.85 117.73-13.5 117.73-13.1L117.73-13.1Q117.73-12.7 117.38-12.85L117.38-12.85Q116.98-13.45 116.31-13.63 115.63-13.8 114.93-13.8L114.93-13.8Q112.93-13.8 110.53-12.5 108.13-11.2 106.23-9.45L106.23-9.45Q105.63-8.95 104.61-7.73 103.58-6.5 102.73-5.05 101.88-3.6 101.88-2.4L101.88-2.4Q101.88-1.75 102.23-1.25L102.23-1.25Q102.43-0.9 102.88-0.9L102.88-0.9Q103.58-0.9 104.76-1.65 105.93-2.4 107.18-3.48 108.43-4.55 109.46-5.55 110.48-6.55 110.93-7L110.93-7Q111.18-7.25 111.91-8.03 112.63-8.8 113.48-9.7 114.33-10.6 115.01-11.25 115.68-11.9 115.88-11.9L115.88-11.9Q116.13-11.9 116.71-11.78 117.28-11.65 117.68-11.4 118.08-11.15 117.83-10.75L117.83-10.75Q116.53-8.85 115.76-6.78 114.98-4.7 114.83-3.5L114.83-3.5Q114.78-3.3 114.78-3.13 114.78-2.95 114.78-2.75L114.78-2.75Q114.78-0.75 116.18-0.75L116.18-0.75Q116.93-0.75 118.18-1.65 119.43-2.55 120.73-3.8 122.03-5.05 123.11-6.23 124.18-7.4 124.58-8L124.58-8Q124.73-8.15 124.88-8.15L124.88-8.15Q125.08-8.15 125.23-7.98 125.38-7.8 125.23-7.55L125.23-7.55Q124.68-6.65 123.63-5.4 122.58-4.15 121.28-2.9 119.98-1.65 118.73-0.75L118.73-0.75Q118.08-0.25 117.08 0.13 116.08 0.5 115.08 0.5ZM147.6 0.6L147.6 0.6Q146.75 0.6 146.1 0.23 145.45-0.15 145.2-1.2L145.2-1.2Q145.05-1.75 145.05-2.3L145.05-2.3Q145.05-3.8 145.82-5.23 146.6-6.65 147.65-7.88 148.7-9.1 149.45-9.95L149.45-9.95Q149.85-10.35 150.37-11 150.9-11.65 150.9-12.3L150.9-12.3Q150.9-12.7 150.5-13.08 150.1-13.45 149.05-13.6L149.05-13.6Q148.45-13.7 147.92-13.78 147.4-13.85 146.85-13.85L146.85-13.85Q145.45-11.95 144.12-10.03 142.8-8.1 141.3-6.25L141.3-6.25Q140.95-5.9 140.7-5.9L140.7-5.9Q140.4-5.9 140.4-6.2L140.4-6.2Q140.4-6.5 140.7-6.8L140.7-6.8Q143.4-10.1 145.35-13.85L145.35-13.85Q145.1-13.85 144.6-13.88 144.1-13.9 143.8-13.95L143.8-13.95Q143.45-14.05 143.25-14.25 143.05-14.45 143.05-14.65L143.05-14.65Q143.05-14.95 143.3-15L143.3-15Q143.95-15.2 144.7-15.6 145.45-16 146.1-16.65L146.1-16.65Q146.8-17.35 147.4-18.13 148-18.9 148.35-19.3L148.35-19.3Q148.7-19.55 149.1-19.55L149.1-19.55Q149.35-19.55 149.57-19.4 149.8-19.25 149.8-18.95L149.8-18.95Q149.8-18.6 149.5-18.05L149.5-18.05Q149.05-17.35 148.52-16.5 148-15.65 147.55-14.95L147.55-14.95Q148.45-14.9 149.35-14.85 150.25-14.8 151.2-14.8L151.2-14.8Q151.7-14.8 152.17-14.83 152.65-14.85 153.15-14.85L153.15-14.85Q154.65-14.85 154.65-14.1L154.65-14.1Q154.65-13.6 154.12-12.88 153.6-12.15 152.85-11.3L152.85-11.3Q151.15-9.35 149.95-7.2 148.75-5.05 148.35-3.9L148.35-3.9Q147.95-2.7 147.95-2.1L147.95-2.1Q147.95-0.9 148.9-0.9L148.9-0.9Q149.75-0.9 150.97-1.75 152.2-2.6 153.5-3.83 154.8-5.05 155.85-6.23 156.9-7.4 157.35-8L157.35-8Q157.45-8.15 157.65-8.15L157.65-8.15Q157.85-8.15 158-7.98 158.15-7.8 158-7.55L158-7.55Q157.45-6.7 156.4-5.43 155.35-4.15 154.05-2.9 152.75-1.65 151.5-0.75L151.5-0.75Q150.85-0.25 149.72 0.18 148.6 0.6 147.6 0.6ZM204.53 0.5L204.53 0.5Q203.63 0.5 202.91 0.1 202.18-0.3 201.83-1.4L201.83-1.4Q201.78-1.55 201.76-1.7 201.73-1.85 201.73-2.05L201.73-2.05Q201.73-3.05 202.18-4.55 202.63-6.05 203.28-7.45L203.28-7.45Q202.98-7.05 202.58-6.48 202.18-5.9 201.43-5L201.43-5Q201.23-4.8 200.98-4.8L200.98-4.8Q200.63-4.8 200.63-5.2L200.63-5.2Q200.63-5.5 200.83-5.7L200.83-5.7Q202.13-7.35 203.16-8.65 204.18-9.95 204.68-10.85L204.68-10.85Q204.68-10.95 204.98-11.48 205.28-12 205.78-12.95L205.78-12.95Q205.38-12.9 205.11-12.88 204.83-12.85 204.63-12.85L204.63-12.85Q204.28-12.85 204.03-13.15 203.78-13.45 203.98-13.9L203.98-13.9Q204.23-14.6 205.08-14.7 205.93-14.8 206.58-14.85L206.58-14.85Q206.63-14.95 206.78-14.95L206.78-14.95Q207.38-16.05 207.93-17.1 208.48-18.15 208.86-18.85 209.23-19.55 209.23-19.6L209.23-19.6Q210.23-21.2 210.53-21.73 210.83-22.25 211.33-22.35L211.33-22.35Q211.88-22.4 212.51-22.3 213.13-22.2 213.33-21.85L213.33-21.85Q213.48-21.65 213.48-21.35L213.48-21.35Q213.48-20.9 213.28-20.48 213.08-20.05 212.88-19.8L212.88-19.8Q212.68-19.45 212.36-19.33 212.03-19.2 211.78-18.7L211.78-18.7Q211.28-17.75 210.68-16.65 210.08-15.55 209.43-14.55L209.43-14.55 210.03-14.6Q211.23-14.7 212.31-14.85 213.38-15 214.78-14.95L214.78-14.95Q215.03-14.95 215.31-14.88 215.58-14.8 215.58-14.65L215.58-14.65Q215.58-14.45 214.28-14.1L214.28-14.1Q213.78-13.9 212.11-13.68 210.43-13.45 208.68-13.25L208.68-13.25Q208.18-12.3 207.78-11.68 207.38-11.05 207.23-10.75L207.23-10.75Q206.13-8.45 205.26-6.58 204.38-4.7 204.28-3.5L204.28-3.5Q204.23-3.3 204.23-3.13 204.23-2.95 204.23-2.75L204.23-2.75Q204.23-0.75 205.53-0.75L205.53-0.75Q206.33-0.75 207.58-1.63 208.83-2.5 210.13-3.78 211.43-5.05 212.51-6.23 213.58-7.4 213.98-8L213.98-8Q214.13-8.15 214.28-8.15L214.28-8.15Q214.48-8.15 214.61-8 214.73-7.85 214.63-7.6L214.63-7.6Q214.18-6.75 213.11-5.48 212.03-4.2 210.71-2.93 209.38-1.65 208.13-0.75L208.13-0.75Q207.48-0.25 206.51 0.13 205.53 0.5 204.53 0.5ZM231 0.65L231 0.65Q230.6 0.65 230.8 0.3L230.8 0.3Q230.9 0 231.32-1.2 231.75-2.4 232.35-4.1 232.95-5.8 233.6-7.58 234.25-9.35 234.8-10.75L234.8-10.75Q234.45-10.3 233.72-9.45 233-8.6 232.2-7.65 231.4-6.7 230.7-6L230.7-6Q230.55-5.85 230.5-5.85L230.5-5.85Q230.35-5.85 230.35-6.15L230.35-6.15Q230.35-6.75 230.65-7.25L230.65-7.25Q231.75-8.65 232.77-9.88 233.8-11.1 234.65-12.2L234.65-12.2Q234.15-12.5 234.15-12.95L234.15-12.95Q234.15-13.65 234.85-13.65L234.85-13.65Q235.15-13.65 235.3-13.55L235.3-13.55Q235.35-13.5 235.4-13.5 235.45-13.5 235.5-13.4L235.5-13.4Q235.75-13.75 235.92-14.05 236.1-14.35 236.25-14.7L236.25-14.7Q236.45-15.15 237.07-16.43 237.7-17.7 238.65-19.45 239.6-21.2 240.82-23.08 242.05-24.95 243.47-26.58 244.9-28.2 246.42-29.2 247.95-30.2 249.55-30.2L249.55-30.2Q249.75-30.2 249.95-30.18 250.15-30.15 250.35-30.1L250.35-30.1Q251.6-29.85 252.1-29.23 252.6-28.6 252.6-27.75L252.6-27.75Q252.6-27.15 252.37-26.48 252.15-25.8 251.75-25.15L251.75-25.15Q250.75-23.4 249.1-21.63 247.45-19.85 245.42-18.13 243.4-16.4 241.37-14.78 239.35-13.15 237.6-11.7L237.6-11.7Q236.4-9.15 235.75-7.18 235.1-5.2 234.75-4L234.75-4Q235.3-4.7 236.4-6 237.5-7.3 238.9-8.8 240.3-10.3 241.8-11.68 243.3-13.05 244.65-13.93 246-14.8 246.95-14.8L246.95-14.8Q248.15-14.8 248.15-13.55L248.15-13.55Q248.15-12.35 247.3-10.9 246.45-9.45 245.9-8.45L245.9-8.45Q245.2-7 244.77-5.68 244.35-4.35 244.25-3.5L244.25-3.5Q244.2-3.3 244.2-3.13 244.2-2.95 244.2-2.75L244.2-2.75Q244.2-0.75 245.6-0.75L245.6-0.75Q246.35-0.75 247.6-1.65 248.85-2.55 250.15-3.8 251.45-5.05 252.52-6.23 253.6-7.4 254-8L254-8Q254.15-8.15 254.35-8.15L254.35-8.15Q254.55-8.15 254.65-8 254.75-7.85 254.65-7.6L254.65-7.6Q254.15-6.75 253.1-5.48 252.05-4.2 250.75-2.93 249.45-1.65 248.2-0.75L248.2-0.75Q247.55-0.25 246.52 0.13 245.5 0.5 244.5 0.5L244.5 0.5Q243.7 0.5 242.95 0.1 242.2-0.3 241.85-1.4L241.85-1.4Q241.7-1.85 241.7-2.65L241.7-2.65Q241.7-2.9 241.7-3.18 241.7-3.45 241.75-3.75L241.75-3.75Q241.95-5.35 242.82-7.13 243.7-8.9 244.45-10.3L244.45-10.3Q244.65-10.7 244.77-11 244.9-11.3 244.9-11.5L244.9-11.5Q244.9-11.9 244.55-11.9L244.55-11.9Q244.2-11.9 243.45-11.45 242.7-11 241.45-9.9L241.45-9.9Q240.35-8.95 239.12-7.43 237.9-5.9 236.72-4.3 235.55-2.7 234.67-1.55 233.8-0.4 233.45-0.2L233.45-0.2Q233.2-0.05 232.3 0.3 231.4 0.65 231 0.65ZM238.55-13.95L238.55-13.95Q240.55-15.3 242.9-17.32 245.25-19.35 247.32-21.68 249.4-24 250.5-26.1L250.5-26.1Q251.1-27.25 251.1-28L251.1-28Q251.1-28.85 250.35-28.85L250.35-28.85Q250-28.85 249.55-28.68 249.1-28.5 248.5-28.05L248.5-28.05Q245.15-25.45 242.85-21.88 240.55-18.3 238.55-13.95ZM275.11 0.75L275.11 0.75Q272.86 0.75 271.21-0.3 269.56-1.35 269.56-3.5L269.56-3.5Q269.56-4.65 270.26-6.3L270.26-6.3Q270.76-7.45 272.11-8.95 273.46-10.45 275.26-11.88 277.06-13.3 278.91-14.23 280.76-15.15 282.26-15.15L282.26-15.15Q282.81-15.15 283.26-15L283.26-15Q284.11-14.7 284.44-14.05 284.76-13.4 284.76-12.7L284.76-12.7Q284.76-12.05 284.56-11.45 284.36-10.85 284.06-10.4L284.06-10.4Q283.16-9.05 281.49-8 279.81-6.95 278.09-6.35 276.36-5.75 275.26-5.65L275.26-5.65 275.16-5.65Q274.51-5.65 274.51-6.05L274.51-6.05Q274.51-6.3 274.91-6.3L274.91-6.3Q276.11-6.4 277.94-7.43 279.76-8.45 281.16-9.55L281.16-9.55Q281.76-10.05 282.59-10.95 283.41-11.85 283.41-12.7L283.41-12.7Q283.41-13.6 282.56-13.6L282.56-13.6Q282.11-13.6 281.64-13.4 281.16-13.2 280.86-13.1L280.86-13.1Q279.41-12.4 277.66-10.93 275.91-9.45 274.49-7.63 273.06-5.8 272.51-3.95L272.51-3.95Q272.36-3.55 272.31-3.18 272.26-2.8 272.26-2.45L272.26-2.45Q272.26-1.25 273.04-0.75 273.81-0.25 274.91-0.25L274.91-0.25Q276.56-0.25 278.31-0.98 280.06-1.7 281.71-2.85 283.36-4 284.74-5.33 286.11-6.65 287.06-7.9L287.06-7.9Q287.21-8.1 287.41-8.13 287.61-8.15 287.66-8.05L287.66-8.05Q287.86-8 287.86-7.78 287.86-7.55 287.76-7.35L287.76-7.35Q286.36-5.4 284.39-3.55 282.41-1.7 280.04-0.48 277.66 0.75 275.11 0.75ZM342.24 18.7L342.24 18.7Q341.29 18.7 340.39 18.2 339.49 17.7 338.89 16.75L338.89 16.75Q338.09 15.5 338.09 13.55L338.09 13.55Q338.09 11.85 338.59 9.95 339.09 8.05 339.74 6.3 340.39 4.55 340.84 3.3L340.84 3.3Q341.29 1.95 342.04-0.03 342.79-2 343.59-4 344.39-6 344.99-7.5 345.59-9 345.74-9.35L345.74-9.35Q344.59-8 343.12-6.4 341.64-4.8 340.04-3.35 338.44-1.9 336.97-0.98 335.49-0.05 334.39-0.05L334.39-0.05Q333.59-0.05 332.69-0.53 331.79-1 331.24-1.75L331.24-1.75Q330.49-2.7 330.49-3.9L330.49-3.9Q330.49-5.25 331.37-6.7 332.24-8.15 333.62-9.5 334.99-10.85 336.57-11.98 338.14-13.1 339.59-13.9 341.04-14.7 341.99-14.95L341.99-14.95Q342.44-15.05 342.99-15.1 343.54-15.15 344.14-15.15L344.14-15.15Q345.14-15.15 346.09-14.98 347.04-14.8 347.59-14.4L347.59-14.4 347.79-14.25Q348.14-15 348.47-15.73 348.79-16.45 349.14-17.25L349.14-17.25Q349.44-17.6 350.07-17.78 350.69-17.95 351.34-17.95L351.34-17.95Q351.89-17.95 352.34-17.78 352.79-17.6 352.79-17.15L352.79-17.15Q352.79-16.4 351.09-15L351.09-15Q350.14-14.25 349.12-12.1 348.09-9.95 347.07-7.15 346.04-4.35 345.14-1.6L345.14-1.6Q345.54-0.7 346.54-0.7L346.54-0.7Q347.44-0.7 348.72-1.58 349.99-2.45 351.34-3.7 352.69-4.95 353.77-6.15 354.84-7.35 355.29-8L355.29-8Q355.44-8.15 355.59-8.15L355.59-8.15Q355.79-8.15 355.92-8 356.04-7.85 355.94-7.6L355.94-7.6Q355.44-6.75 354.37-5.48 353.29-4.2 351.99-2.93 350.69-1.65 349.44-0.75L349.44-0.75Q348.79-0.25 347.72 0.15 346.64 0.55 345.59 0.5L345.59 0.5Q345.99 2.3 346.29 4.67 346.59 7.05 346.77 9.2 346.94 11.35 346.84 12.5L346.84 12.5Q346.49 15.8 345.12 17.25 343.74 18.7 342.24 18.7ZM333.64-0.9L333.64-0.9Q334.39-0.9 335.79-1.85 337.19-2.8 338.87-4.23 340.54-5.65 342.14-7.2 343.74-8.75 344.99-10.03 346.24-11.3 346.74-11.8L346.74-11.8Q346.84-12.1 346.94-12.2L346.94-12.2 347.24-13.1Q347.39-13.3 347.44-13.5L347.44-13.5Q346.69-13.8 345.69-13.8L345.69-13.8Q343.69-13.8 341.29-12.5 338.89-11.2 336.99-9.45L336.99-9.45Q336.39-8.95 335.37-7.73 334.34-6.5 333.49-5.05 332.64-3.6 332.64-2.4L332.64-2.4Q332.64-1.75 332.99-1.25L332.99-1.25Q333.19-0.9 333.64-0.9ZM341.99 17.4L341.99 17.4Q343.54 17.4 344.32 16.23 345.09 15.05 345.37 13.35 345.64 11.65 345.64 10.15L345.64 10.15Q345.64 9.6 345.62 9.08 345.59 8.55 345.54 8.2L345.54 8.2Q345.49 6.6 345.22 4.45 344.94 2.3 344.69 0.9L344.69 0.9Q344.69 0.7 344.57 0.55 344.44 0.4 344.29 0.8L344.29 0.8Q343.49 2.95 342.49 5.45 341.49 7.95 340.84 10.48 340.19 13 340.39 15.3L340.39 15.3Q340.49 16.4 340.94 16.9 341.39 17.4 341.99 17.4ZM385.31 0.5L385.31 0.5Q384.41 0.5 383.71 0.1 383.01-0.3 382.66-1.4L382.66-1.4Q382.61-1.65 382.54-1.98 382.46-2.3 382.46-2.65L382.46-2.65Q382.46-3.85 382.79-5.35 383.11-6.85 383.51-7.85L383.51-7.85Q383.31-7.7 382.81-6.85 382.31-6 381.56-4.88 380.81-3.75 379.89-2.63 378.96-1.5 377.89-0.78 376.81-0.05 375.61-0.05L375.61-0.05Q374.81-0.05 373.69-0.5 372.56-0.95 372.06-1.75L372.06-1.75Q371.56-2.55 371.56-3.75L371.56-3.75Q371.56-5.2 372.21-6.93 372.86-8.65 373.86-10.15L373.86-10.15Q374.21-10.65 374.66-11.35 375.11-12.05 375.56-12.58 376.01-13.1 376.21-13.15L376.21-13.15Q376.81-13.35 377.61-13.35L377.61-13.35Q378.46-13.35 378.86-13.15L378.86-13.15Q379.21-13 379.21-12.8L379.21-12.8Q379.21-12.55 378.81-12.15L378.81-12.15Q378.26-11.65 377.31-10.65 376.36-9.65 375.44-8.25 374.51-6.85 373.91-5.15L373.91-5.15Q373.41-3.8 373.41-2.8L373.41-2.8Q373.41-1.05 374.81-1.05L374.81-1.05Q376.01-1.05 377.36-2.05 378.71-3.05 379.99-4.5 381.26-5.95 382.29-7.38 383.31-8.8 383.86-9.65L383.86-9.65Q384.36-10.35 384.99-11.45 385.61-12.55 386.21-13.6 386.81-14.65 387.16-15.15L387.16-15.15Q387.51-15.15 388.24-15.03 388.96-14.9 389.49-14.6 390.01-14.3 389.76-13.85L389.76-13.85Q389.46-13.35 388.84-12.3 388.21-11.25 387.59-10.18 386.96-9.1 386.61-8.45L386.61-8.45Q385.41-6.15 385.06-3.5L385.06-3.5Q385.01-3.3 385.01-3.13 385.01-2.95 385.01-2.75L385.01-2.75Q385.01-0.75 386.36-0.75L386.36-0.75Q387.11-0.75 388.36-1.65 389.61-2.55 390.94-3.8 392.26-5.05 393.34-6.23 394.41-7.4 394.81-8L394.81-8Q394.91-8.15 395.11-8.15L395.11-8.15Q395.31-8.15 395.44-8 395.56-7.85 395.41-7.6L395.41-7.6Q394.96-6.75 393.89-5.48 392.81-4.2 391.51-2.93 390.21-1.65 388.96-0.75L388.96-0.75Q388.31-0.25 387.31 0.13 386.31 0.5 385.31 0.5ZM425.33 0.5L425.33 0.5Q424.48 0.5 423.75 0.1 423.03-0.3 422.68-1.4L422.68-1.4Q422.53-1.85 422.53-2.65L422.53-2.65Q422.53-3.75 422.83-5.1 423.13-6.45 423.48-7.4L423.48-7.4Q423.23-7.3 422.55-6.53 421.88-5.75 420.9-4.67 419.93-3.6 418.75-2.53 417.58-1.45 416.33-0.75 415.08-0.05 413.88-0.05L413.88-0.05Q413.08-0.05 412.18-0.53 411.28-1 410.73-1.75L410.73-1.75Q409.98-2.75 409.98-3.8L409.98-3.8Q409.98-5.15 410.9-6.6 411.83-8.05 413.3-9.43 414.78-10.8 416.45-11.93 418.13-13.05 419.65-13.83 421.18-14.6 422.13-14.85L422.13-14.85Q423.13-15.15 424.38-15.15L424.38-15.15Q425.08-15.15 425.83-14.98 426.58-14.8 427.08-14.4L427.08-14.4Q427.48-14.2 427.73-13.85 427.98-13.5 427.98-13.1L427.98-13.1Q427.98-12.7 427.63-12.85L427.63-12.85Q427.23-13.45 426.55-13.63 425.88-13.8 425.18-13.8L425.18-13.8Q423.18-13.8 420.78-12.5 418.38-11.2 416.48-9.45L416.48-9.45Q415.88-8.95 414.85-7.73 413.83-6.5 412.98-5.05 412.13-3.6 412.13-2.4L412.13-2.4Q412.13-1.75 412.48-1.25L412.48-1.25Q412.68-0.9 413.13-0.9L413.13-0.9Q413.83-0.9 415-1.65 416.18-2.4 417.43-3.48 418.68-4.55 419.7-5.55 420.73-6.55 421.18-7L421.18-7Q421.43-7.25 422.15-8.03 422.88-8.8 423.73-9.7 424.58-10.6 425.25-11.25 425.93-11.9 426.13-11.9L426.13-11.9Q426.38-11.9 426.95-11.78 427.53-11.65 427.93-11.4 428.33-11.15 428.08-10.75L428.08-10.75Q426.78-8.85 426-6.78 425.23-4.7 425.08-3.5L425.08-3.5Q425.03-3.3 425.03-3.13 425.03-2.95 425.03-2.75L425.03-2.75Q425.03-0.75 426.43-0.75L426.43-0.75Q427.18-0.75 428.43-1.65 429.68-2.55 430.98-3.8 432.28-5.05 433.35-6.23 434.43-7.4 434.83-8L434.83-8Q434.98-8.15 435.13-8.15L435.13-8.15Q435.33-8.15 435.48-7.98 435.63-7.8 435.48-7.55L435.48-7.55Q434.93-6.65 433.88-5.4 432.83-4.15 431.53-2.9 430.23-1.65 428.98-0.75L428.98-0.75Q428.33-0.25 427.33 0.13 426.33 0.5 425.33 0.5ZM454.44 0.5L454.44 0.5Q452.34 0.5 451.52-0.55 450.69-1.6 450.69-3.15L450.69-3.15Q450.69-4.6 451.37-6.8 452.04-9 453.14-11.55 454.24-14.1 455.52-16.63 456.79-19.15 458.07-21.28 459.34-23.4 460.29-24.7L460.29-24.7Q461.24-25.95 462.34-27.2 463.44-28.45 464.79-29.3 466.14-30.15 467.84-30.15L467.84-30.15Q468.99-30.15 469.82-29.53 470.64-28.9 470.64-27.65L470.64-27.65Q470.64-27.15 470.47-26.5 470.29-25.85 469.89-25.15L469.89-25.15Q466.84-19.85 462.62-15.35 458.39-10.85 453.69-7L453.69-7Q453.49-6.25 453.32-5.65 453.14-5.05 453.04-4.7L453.04-4.7Q452.99-4.45 452.99-4.17 452.99-3.9 452.99-3.65L452.99-3.65Q452.99-2.45 453.39-1.55 453.79-0.65 454.74-0.65L454.74-0.65Q455.64-0.65 456.97-1.53 458.29-2.4 459.64-3.68 460.99-4.95 462.09-6.15 463.19-7.35 463.64-8L463.64-8Q463.79-8.15 463.94-8.15L463.94-8.15Q464.14-8.15 464.27-7.95 464.39-7.75 464.24-7.45L464.24-7.45Q463.74-6.6 462.64-5.35 461.54-4.1 460.19-2.83 458.84-1.55 457.59-0.6L457.59-0.6Q456.04 0.5 454.44 0.5ZM454.39-9L454.39-9Q456.29-10.3 458.34-12.38 460.39-14.45 462.37-16.9 464.34-19.35 465.97-21.75 467.59-24.15 468.59-26.1L468.59-26.1Q468.89-26.65 469.02-27.08 469.14-27.5 469.14-27.85L469.14-27.85Q469.14-28.8 468.34-28.8L468.34-28.8Q467.64-28.8 466.59-28.05L466.59-28.05Q463.89-25.95 461.59-22.68 459.29-19.4 457.49-15.8 455.69-12.2 454.39-9ZM488.06-17.4L488.06-17.4Q487.41-17.4 486.71-17.53 486.01-17.65 486.01-18.45L486.01-18.45Q486.01-18.6 486.68-19.15 487.36-19.7 488.08-20.28 488.81-20.85 488.96-20.95L488.96-20.95Q489.81-21.65 490.01-21.65L490.01-21.65Q490.26-21.65 490.01-21 489.76-20.35 489.76-19.85L489.76-19.85Q489.76-19.6 489.46-19 489.16-18.4 488.76-17.9 488.36-17.4 488.06-17.4ZM482.61 0.5L482.61 0.5Q481.71 0.5 480.98 0.1 480.26-0.3 479.91-1.4L479.91-1.4Q479.86-1.55 479.83-1.7 479.81-1.85 479.81-2.05L479.81-2.05Q479.81-3.05 480.26-4.55 480.71-6.05 481.36-7.45L481.36-7.45Q481.06-7.05 480.66-6.48 480.26-5.9 479.51-5L479.51-5Q479.31-4.8 479.06-4.8L479.06-4.8Q478.71-4.8 478.71-5.2L478.71-5.2Q478.71-5.5 478.91-5.7L478.91-5.7Q480.21-7.35 481.23-8.65 482.26-9.95 482.76-10.85L482.76-10.85Q482.76-10.9 482.73-10.93 482.71-10.95 482.71-11L482.71-11Q482.71-11.15 482.86-11.45L482.86-11.45Q483.26-12.65 483.68-13.48 484.11-14.3 484.61-14.4L484.61-14.4Q484.71-14.4 484.81-14.43 484.91-14.45 485.01-14.45L485.01-14.45Q485.56-14.45 486.01-14.2 486.46-13.95 486.46-13.45L486.46-13.45Q486.46-13 486.13-12.35 485.81-11.7 485.31-10.75L485.31-10.75Q484.21-8.45 483.33-6.58 482.46-4.7 482.36-3.5L482.36-3.5Q482.31-3.3 482.31-3.13 482.31-2.95 482.31-2.75L482.31-2.75Q482.31-0.75 483.61-0.75L483.61-0.75Q484.41-0.75 485.66-1.63 486.91-2.5 488.21-3.78 489.51-5.05 490.58-6.23 491.66-7.4 492.06-8L492.06-8Q492.21-8.15 492.36-8.15L492.36-8.15Q492.56-8.15 492.68-8 492.81-7.85 492.71-7.6L492.71-7.6Q492.26-6.75 491.18-5.48 490.11-4.2 488.78-2.93 487.46-1.65 486.21-0.75L486.21-0.75Q485.56-0.25 484.58 0.13 483.61 0.5 482.61 0.5ZM511.12 0.5L511.12 0.5Q510.22 0.5 509.5 0.1 508.77-0.3 508.42-1.4L508.42-1.4Q508.37-1.55 508.35-1.7 508.32-1.85 508.32-2.05L508.32-2.05Q508.32-3.05 508.77-4.55 509.22-6.05 509.87-7.45L509.87-7.45Q509.57-7.05 509.17-6.48 508.77-5.9 508.02-5L508.02-5Q507.82-4.8 507.57-4.8L507.57-4.8Q507.22-4.8 507.22-5.2L507.22-5.2Q507.22-5.5 507.42-5.7L507.42-5.7Q508.72-7.35 509.75-8.65 510.77-9.95 511.27-10.85L511.27-10.85Q511.27-10.95 511.57-11.48 511.87-12 512.37-12.95L512.37-12.95Q511.97-12.9 511.7-12.88 511.42-12.85 511.22-12.85L511.22-12.85Q510.87-12.85 510.62-13.15 510.37-13.45 510.57-13.9L510.57-13.9Q510.82-14.6 511.67-14.7 512.52-14.8 513.17-14.85L513.17-14.85Q513.22-14.95 513.37-14.95L513.37-14.95Q513.97-16.05 514.52-17.1 515.07-18.15 515.45-18.85 515.82-19.55 515.82-19.6L515.82-19.6Q516.82-21.2 517.12-21.73 517.42-22.25 517.92-22.35L517.92-22.35Q518.47-22.4 519.1-22.3 519.72-22.2 519.92-21.85L519.92-21.85Q520.07-21.65 520.07-21.35L520.07-21.35Q520.07-20.9 519.87-20.48 519.67-20.05 519.47-19.8L519.47-19.8Q519.27-19.45 518.95-19.33 518.62-19.2 518.37-18.7L518.37-18.7Q517.87-17.75 517.27-16.65 516.67-15.55 516.02-14.55L516.02-14.55 516.62-14.6Q517.82-14.7 518.9-14.85 519.97-15 521.37-14.95L521.37-14.95Q521.62-14.95 521.9-14.88 522.17-14.8 522.17-14.65L522.17-14.65Q522.17-14.45 520.87-14.1L520.87-14.1Q520.37-13.9 518.7-13.68 517.02-13.45 515.27-13.25L515.27-13.25Q514.77-12.3 514.37-11.68 513.97-11.05 513.82-10.75L513.82-10.75Q512.72-8.45 511.85-6.58 510.97-4.7 510.87-3.5L510.87-3.5Q510.82-3.3 510.82-3.13 510.82-2.95 510.82-2.75L510.82-2.75Q510.82-0.75 512.12-0.75L512.12-0.75Q512.92-0.75 514.17-1.63 515.42-2.5 516.72-3.78 518.02-5.05 519.1-6.23 520.17-7.4 520.57-8L520.57-8Q520.72-8.15 520.87-8.15L520.87-8.15Q521.07-8.15 521.2-8 521.32-7.85 521.22-7.6L521.22-7.6Q520.77-6.75 519.7-5.48 518.62-4.2 517.3-2.93 515.97-1.65 514.72-0.75L514.72-0.75Q514.07-0.25 513.1 0.13 512.12 0.5 511.12 0.5ZM535.09 18.35L535.09 18.35Q534.49 18.2 534.04 18.05L534.04 18.05Q533.09 17.55 532.69 16.93 532.29 16.3 532.29 15.6L532.29 15.6Q532.29 14.45 533.07 13.13 533.84 11.8 535.09 10.4L535.09 10.4Q536.34 8.9 538.27 7.35 540.19 5.8 542.29 4.38 544.39 2.95 545.99 1.9L545.99 1.9Q546.84 0.15 547.77-1.85 548.69-3.85 549.54-5.73 550.39-7.6 551.02-9.15 551.64-10.7 551.94-11.55L551.94-11.55Q551.14-10.6 550.09-9.18 549.04-7.75 547.79-6.18 546.54-4.6 545.22-3.2 543.89-1.8 542.49-0.93 541.09-0.05 539.74-0.05L539.74-0.05Q537.74-0.05 536.97-1.07 536.19-2.1 536.19-3.5L536.19-3.5Q536.19-4.5 536.47-5.5 536.74-6.5 537.19-7.35L537.19-7.35Q537.49-7.95 538.14-8.95 538.79-9.95 539.64-11 540.49-12.05 541.37-12.75 542.24-13.45 543.04-13.45L543.04-13.45Q543.99-13.45 544.49-12.78 544.99-12.1 544.59-11.85L544.59-11.85Q543.79-11.3 542.62-10.18 541.44-9.05 540.29-7.6L540.29-7.6Q539.99-7.2 539.57-6.35 539.14-5.5 538.79-4.53 538.44-3.55 538.44-2.75L538.44-2.75Q538.44-2.4 538.54-2.08 538.64-1.75 538.89-1.6L538.89-1.6Q539.29-1.3 539.79-1.3L539.79-1.3Q540.49-1.3 541.37-1.75 542.24-2.2 543.04-2.9L543.04-2.9Q545.84-5.6 548.04-8.55 550.24-11.5 552.69-14.4L552.69-14.4Q552.84-14.9 553.54-14.9L553.54-14.9Q554.34-14.9 555.22-14.43 556.09-13.95 555.94-13.65L555.94-13.65Q555.49-12.65 554.77-11 554.04-9.35 553.19-7.45 552.34-5.55 551.49-3.68 550.64-1.8 549.94-0.3L549.94-0.3Q550.54-0.6 552.09-1.8 553.64-3 555.49-4.73 557.34-6.45 558.84-8.3L558.84-8.3Q559.14-8.6 559.29-8.6L559.29-8.6Q559.59-8.6 559.59-8.2L559.59-8.2Q559.59-7.85 559.29-7.4L559.29-7.4Q558.54-6.4 557.22-5.05 555.89-3.7 554.37-2.33 552.84-0.95 551.39 0.18 549.94 1.3 548.89 1.9L548.89 1.9Q547.34 5.2 545.89 8.13 544.44 11.05 543.24 12.85L543.24 12.85Q542.44 14.1 541.29 15.4 540.14 16.7 538.79 17.57 537.44 18.45 535.94 18.45L535.94 18.45Q535.74 18.45 535.54 18.43 535.34 18.4 535.09 18.35ZM535.24 17.25L535.24 17.25Q535.64 17.25 536.22 17 536.79 16.75 537.44 16.2L537.44 16.2Q539.34 14.65 540.64 12.58 541.94 10.5 542.97 8.2 543.99 5.9 545.04 3.8L545.04 3.8Q543.09 5.25 540.64 7.23 538.19 9.2 536.19 11.15L536.19 11.15Q534.99 12.35 534.44 13.53 533.89 14.7 533.89 15.6L533.89 15.6Q533.89 17.25 535.24 17.25Z" opacity="1" transform="matrix(1,0,0,1,0,0)" fill="#f25a50" class="slogan-text-1" data-fill-palette-color="secondary" id="text-1"></path></svg></g></svg></g></svg></g></svg></g></svg></g></svg></g></svg></g><path d="M190.716 85.456L190.716 22.166 393.584 22.166 393.584 225.034 190.716 225.034 190.716 161.744 193.843 161.744 193.843 221.907 390.457 221.907 390.457 25.293 193.843 25.293 193.843 85.456Z" fill="#4a596d" stroke="transparent" data-fill-palette-color="tertiary"></path></svg></g><defs></defs></svg><rect width="395.52" height="247.2" fill="none" stroke="none" visibility="hidden"></rect></g></svg></g></svg>